# xmcd
#
# Track frame offsets: 
#        150
#        6555
#        24707
#        42910
#        56597
#        73882
#        92962
#        106077
#        125200
#        142237
#        156370
#        173922
#        188872
#        205340
#        219922
#        234057
#
# Disc length: 3367 seconds
#
# Revision: 0
# Processed by: cddbd v1.4PL0 Copyright (c) Steve Scherf et al.
# Submitted via: ExactAudioCopy v0.90a11
#
DISCID=ef0d2510
DTITLE=Lairton e Seus Teclado 6-Ao Vivo - Lairton e Seus Teclado 6-Ao 
DTITLE=Vivo
DYEAR=1900
DGENRE=
TTITLE0=Abertura
TTITLE1=A Foto
TTITLE2=Anjo Azul
TTITLE3=Senhorita
TTITLE4=Indiferença
TTITLE5=Veja (Margarida)
TTITLE6=Pra Ficar Contigo
TTITLE7=Redeas do Possante
TTITLE8=Yolanda
TTITLE9=Depois que Você Matar Meu Coração
TTITLE10=Diana
TTITLE11=Tarde Demais
TTITLE12=Só Alegria
TTITLE13=Peão Apaixonado
TTITLE14=Oração Pelo Brasil
TTITLE15=Tchau Tchau Amor
EXTD=
EXTT0=
EXTT1=
EXTT2=
EXTT3=
EXTT4=
EXTT5=
EXTT6=
EXTT7=
EXTT8=
EXTT9=
EXTT10=
EXTT11=
EXTT12=
EXTT13=
EXTT14=
EXTT15=
PLAYORDER=
